<?xml version="1.0" encoding="UTF-8"?>
<svg xmlns="http://www.w3.org/2000/svg" viewBox="0 0 100 100" width="100" height="100">
  <rect x="0" y="0" width="100" height="100" fill="#fafafa"/>
  <polygon fill="none" stroke="#111111" stroke-width="0.45" stroke-linejoin="round" points="17.7333,17.7333 76.4,23.6 94,58.8 52.9333,82.2667 6,52.9333"/>
  <g stroke="#2563eb" stroke-width="0.9" stroke-linecap="round">
    <line x1="21.84" y1="18.144" x2="30.64" y2="19.024"/>
    <line x1="37.68" y1="19.728" x2="47.6533" y2="20.7253"/>
    <line x1="57.6267" y1="21.7227" x2="66.4267" y2="22.6027"/>
    <line x1="78.512" y1="27.824" x2="83.616" y2="38.032"/>
    <line x1="90.128" y1="51.056" x2="87.84" y2="62.32"/>
    <line x1="77.5733" y1="68.1867" x2="68.5387" y2="73.3493"/>
    <line x1="60.736" y1="77.808" x2="55.3973" y2="80.8587"/>
    <line x1="48.7093" y1="79.6267" x2="38.8533" y2="73.4667"/>
    <line x1="27.12" y1="66.1333" x2="15.3867" y2="58.8"/>
    <line x1="8.112" y1="46.5973" x2="11.28" y2="37.0933"/>
    <line x1="14.448" y1="27.5893" x2="16.56" y2="21.2533"/>
  </g>
  <g fill="#111111">
    <circle cx="21.84" cy="18.144" r="0.95"/>
    <circle cx="30.64" cy="19.024" r="0.95"/>
    <circle cx="37.68" cy="19.728" r="0.95"/>
    <circle cx="47.6533" cy="20.7253" r="0.95"/>
    <circle cx="57.6267" cy="21.7227" r="0.95"/>
    <circle cx="66.4267" cy="22.6027" r="0.95"/>
    <circle cx="78.512" cy="27.824" r="0.95"/>
    <circle cx="83.616" cy="38.032" r="0.95"/>
    <circle cx="90.128" cy="51.056" r="0.95"/>
    <circle cx="87.84" cy="62.32" r="0.95"/>
    <circle cx="77.5733" cy="68.1867" r="0.95"/>
    <circle cx="68.5387" cy="73.3493" r="0.95"/>
    <circle cx="60.736" cy="77.808" r="0.95"/>
    <circle cx="55.3973" cy="80.8587" r="0.95"/>
    <circle cx="48.7093" cy="79.6267" r="0.95"/>
    <circle cx="38.8533" cy="73.4667" r="0.95"/>
    <circle cx="27.12" cy="66.1333" r="0.95"/>
    <circle cx="15.3867" cy="58.8" r="0.95"/>
    <circle cx="8.112" cy="46.5973" r="0.95"/>
    <circle cx="11.28" cy="37.0933" r="0.95"/>
    <circle cx="14.448" cy="27.5893" r="0.95"/>
    <circle cx="16.56" cy="21.2533" r="0.95"/>
  </g>
</svg>
