<?xml version="1.0" encoding="UTF-8"?>
<svg xmlns="http://www.w3.org/2000/svg" viewBox="0 0 100 100" width="100" height="100">
  <rect x="0" y="0" width="100" height="100" fill="#fafafa"/>
  <polygon fill="none" stroke="#111111" stroke-width="0.45" stroke-linejoin="round" points="50,6 81.1135,18.8865 94,50 81.1135,81.1135 50,94 18.8865,81.1135 6,50 18.8865,18.8865"/>
  <g stroke="#2563eb" stroke-width="0.9" stroke-linecap="round">
    <line x1="57.7784" y1="9.22162" x2="73.3351" y2="15.6649"/>
    <line x1="84.9794" y1="28.2205" x2="91.4227" y2="43.7773"/>
    <line x1="91.4227" y1="56.2227" x2="84.9794" y2="71.7794"/>
    <line x1="70.2238" y1="85.6238" x2="54.667" y2="92.067"/>
    <line x1="37.5546" y1="88.8454" x2="21.9978" y2="82.4021"/>
    <line x1="15.6649" y1="73.3351" x2="10.5103" y2="60.8897"/>
    <line x1="12.4432" y1="34.4432" x2="15.6649" y2="26.6649"/>
    <line x1="28.2205" y1="15.0206" x2="37.5546" y2="11.1546"/>
  </g>
  <g fill="#111111">
    <circle cx="57.7784" cy="9.22162" r="0.95"/>
    <circle cx="73.3351" cy="15.6649" r="0.95"/>
    <circle cx="84.9794" cy="28.2205" r="0.95"/>
    <circle cx="91.4227" cy="43.7773" r="0.95"/>
    <circle cx="91.4227" cy="56.2227" r="0.95"/>
    <circle cx="84.9794" cy="71.7794" r="0.95"/>
    <circle cx="70.2238" cy="85.6238" r="0.95"/>
    <circle cx="54.667" cy="92.067" r="0.95"/>
    <circle cx="37.5546" cy="88.8454" r="0.95"/>
    <circle cx="21.9978" cy="82.4021" r="0.95"/>
    <circle cx="15.6649" cy="73.3351" r="0.95"/>
    <circle cx="10.5103" cy="60.8897" r="0.95"/>
    <circle cx="12.4432" cy="34.4432" r="0.95"/>
    <circle cx="15.6649" cy="26.6649" r="0.95"/>
    <circle cx="28.2205" cy="15.0206" r="0.95"/>
    <circle cx="37.5546" cy="11.1546" r="0.95"/>
  </g>
</svg>
