<?xml version="1.0" encoding="UTF-8"?>
<svg xmlns="http://www.w3.org/2000/svg" viewBox="0 0 100 100" width="100" height="100">
  <rect x="0" y="0" width="100" height="100" fill="#fafafa"/>
  <polygon fill="none" stroke="#111111" stroke-width="0.45" stroke-linejoin="round" points="41.2,6 58.8,6 50,94"/>
  <g stroke="#2563eb" stroke-width="0.9" stroke-linecap="round">
    <line x1="51.496" y1="79.04" x2="48.416" y2="78.16"/>
    <line x1="53.344" y1="60.56" x2="46.48" y2="58.8"/>
    <line x1="55.28" y1="41.2" x2="44.544" y2="39.44"/>
    <line x1="46.48" y1="6" x2="53.52" y2="6"/>
    <line x1="57.216" y1="21.84" x2="42.696" y2="20.96"/>
  </g>
  <g fill="#111111">
    <circle cx="46.48" cy="6" r="0.95"/>
    <circle cx="53.52" cy="6" r="0.95"/>
    <circle cx="57.216" cy="21.84" r="0.95"/>
    <circle cx="55.28" cy="41.2" r="0.95"/>
    <circle cx="53.344" cy="60.56" r="0.95"/>
    <circle cx="51.496" cy="79.04" r="0.95"/>
    <circle cx="48.416" cy="78.16" r="0.95"/>
    <circle cx="46.48" cy="58.8" r="0.95"/>
    <circle cx="44.544" cy="39.44" r="0.95"/>
    <circle cx="42.696" cy="20.96" r="0.95"/>
  </g>
</svg>
